# xmcd
#
# Track frame offsets:
#	150
#	11244
#	22878
#	34661
#	45635
#	58690
#	68526
#	77694
#	88917
#	102955
#
# Disc length: 1488 seconds
#
# Revision: 1
# Processed by: cddbd v1.5.2PL0 Copyright (c) Steve Scherf et al.
# Submitted via: audiograbber 1.83.01
#
DISCID=7505ce0a
DTITLE=Dolly Parton - Touch Your Woman
DYEAR=1972
DGENRE=Country
TTITLE0=Will He Be Waiting
TTITLE1=The Greatest Days Of All
TTITLE2=Touch Your Woman
TTITLE3=A Lot Of You Left In Me
TTITLE4=Second Best
TTITLE5=A Little At A Time
TTITLE6=Love Is Only As Strong (As Your Weakest Moment)
TTITLE7=Love Isn't Free
TTITLE8=Mission Chapel Memories
TTITLE9=Loneliness Found Me
EXTD=
EXTT0=
EXTT1=
EXTT2=
EXTT3=
EXTT4=
EXTT5=
EXTT6=
EXTT7=
EXTT8=
EXTT9=
PLAYORDER=
